<svg width="0" height="0" class="hidden">
  <symbol fill="none" xmlns="http://www.w3.org/2000/svg" viewBox="0 0 41 40" id="architecture">
    <g clip-path="url(#clip0_45_36)">
      <rect width="40" height="40" transform="translate(0.5)" fill="white"></rect>
      <rect x="0.5" y="16.6667" width="23.3333" height="23.3333" fill="#7595FD"></rect>
      <path d="M11.1 31.3L11.5167 35L14.2167 32.4333L18.8333 19.7667C17.7 19.4833 16.7 18.9167 15.8833 18.1333L11.1 31.3ZM25.1167 18.1333C24.3 18.9167 23.2833 19.4833 22.1667 19.7667L26.7833 32.4333L29.4833 35L29.9167 31.3L25.1167 18.1333V18.1333ZM25.4 14.3333C25.9 11.7333 24.4 9.43333 22.1667 8.63333V6.66667C22.1667 5.75 21.4167 5 20.5 5C19.5833 5 18.8333 5.75 18.8333 6.66667V8.63333C16.9 9.33333 15.5 11.1667 15.5 13.3333C15.5 16.4 18.2667 18.8333 21.4333 18.25C23.4 17.8833 25.0167 16.3 25.4 14.3333V14.3333ZM20.5 15C19.5833 15 18.8333 14.25 18.8333 13.3333C18.8333 12.4167 19.5833 11.6667 20.5 11.6667C21.4167 11.6667 22.1667 12.4167 22.1667 13.3333C22.1667 14.25 21.4167 15 20.5 15Z" fill="#292E3D"></path>
    </g>
    <defs>
      <clipPath id="clip0_45_36">
        <rect width="40" height="40" fill="white" transform="translate(0.5)"></rect>
      </clipPath>
    </defs>
  </symbol>
  <symbol fill="none" xmlns="http://www.w3.org/2000/svg" viewBox="0 0 27 18" id="back-arrow">
    <path fill-rule="evenodd" clip-rule="evenodd" d="M26.5 9C26.5 8.74955 26.4022 8.50936 26.228 8.33227C26.0539 8.15518 25.8177 8.05569 25.5715 8.05569L3.6716 8.05569L9.51566 2.11408C9.60198 2.02628 9.67047 1.92205 9.71719 1.80733C9.76391 1.69262 9.78796 1.56967 9.78796 1.4455C9.78796 1.32134 9.76391 1.19839 9.71719 1.08368C9.67047 0.968962 9.60198 0.86473 9.51566 0.776931C9.42933 0.689133 9.32684 0.619488 9.21405 0.571972C9.10125 0.524456 8.98036 0.5 8.85827 0.5C8.73618 0.5 8.61529 0.524456 8.50249 0.571972C8.3897 0.619488 8.28721 0.689133 8.20088 0.776932L0.772785 8.33143C0.686316 8.41914 0.617712 8.52335 0.570903 8.63808C0.524094 8.7528 0.5 8.87579 0.5 9C0.5 9.12421 0.524094 9.2472 0.570903 9.36192C0.617712 9.47665 0.686316 9.58085 0.772785 9.66857L8.20088 17.2231C8.28721 17.3109 8.3897 17.3805 8.50249 17.428C8.61529 17.4755 8.73618 17.5 8.85827 17.5C8.98036 17.5 9.10125 17.4755 9.21405 17.428C9.32684 17.3805 9.42933 17.3109 9.51566 17.2231C9.60198 17.1353 9.67047 17.031 9.71719 16.9163C9.76391 16.8016 9.78795 16.6787 9.78795 16.5545C9.78795 16.4303 9.76391 16.3074 9.71719 16.1927C9.67047 16.078 9.60198 15.9737 9.51566 15.8859L3.6716 9.94431L25.5715 9.94431C25.8177 9.94431 26.0539 9.84482 26.228 9.66773C26.4022 9.49064 26.5 9.25045 26.5 9Z" fill="white"></path>
  </symbol>
  <symbol fill="none" xmlns="http://www.w3.org/2000/svg" viewBox="0 0 34 34" id="best-designs">
    <path d="M33.3167 25.4333L24.0667 16.1833L26.6833 13.5667L20.4333 7.31668L17.8167 9.93335L8.56667 0.68335L0.683334 8.56668L9.93333 17.8167L2 25.75V32H8.25L16.1833 24.0667L25.4333 33.3167L33.3167 25.4333V25.4333ZM12.3 15.45L5.4 8.56668L8.56667 5.40002L10.6833 7.51668L8.7 9.50002L11.05 11.85L13.0333 9.86668L15.45 12.2833L12.3 15.45V15.45ZM18.55 21.7L21.7167 18.5333L24.1333 20.95L22.15 22.9333L24.5 25.2833L26.4833 23.3L28.6 25.4167L25.4333 28.5834L18.55 21.7V21.7ZM22.2217 5.53835L26.4517 1.30668L32.6983 7.55335L28.4683 11.785L22.2217 5.53835Z" fill="#F9995D"></path>
  </symbol>
  <symbol fill="none" xmlns="http://www.w3.org/2000/svg" viewBox="0 0 38 38" id="best-services">
    <path d="M34 12.3333C34.884 12.3333 35.7319 12.6845 36.357 13.3096C36.9821 13.9348 37.3333 14.7826 37.3333 15.6667V22.3333C37.3333 23.2174 36.9821 24.0652 36.357 24.6904C35.7319 25.3155 34.884 25.6667 34 25.6667H32.23C31.8237 28.8888 30.2554 31.852 27.8196 34C25.3837 36.148 22.2477 37.3333 19 37.3333V34C21.6522 34 24.1957 32.9464 26.0711 31.0711C27.9464 29.1957 29 26.6522 29 24V14C29 11.3478 27.9464 8.80429 26.0711 6.92893C24.1957 5.05357 21.6522 4 19 4C16.3478 4 13.8043 5.05357 11.9289 6.92893C10.0536 8.80429 8.99999 11.3478 8.99999 14V25.6667H3.99999C3.11593 25.6667 2.26809 25.3155 1.64297 24.6904C1.01785 24.0652 0.666656 23.2174 0.666656 22.3333V15.6667C0.666656 14.7826 1.01785 13.9348 1.64297 13.3096C2.26809 12.6845 3.11593 12.3333 3.99999 12.3333H5.76999C6.17671 9.11149 7.74512 6.14878 10.1809 4.00112C12.6168 1.85346 15.7526 0.668457 19 0.668457C22.2474 0.668457 25.3832 1.85346 27.819 4.00112C30.2549 6.14878 31.8233 9.11149 32.23 12.3333H34ZM11.9333 25.3083L13.7 22.4817C15.2884 23.4767 17.1256 24.003 19 24C20.8744 24.003 22.7115 23.4767 24.3 22.4817L26.0667 25.3083C23.9488 26.6352 21.4992 27.3372 19 27.3333C16.5008 27.3372 14.0512 26.6352 11.9333 25.3083Z" fill="#F9995D"></path>
  </symbol>
  <symbol fill="none" xmlns="http://www.w3.org/2000/svg" viewBox="0 0 41 40" id="construction">
    <g clip-path="url(#clip0_45_49)">
      <rect x="0.5" y="16.6667" width="23.3333" height="23.3333" fill="#7595FD"></rect>
      <path d="M32.1517 3.33331H15.5167C13.665 3.33331 12.1667 4.83165 12.1667 6.68331V16.0783L4.33001 23.815C4.0952 24.0472 3.93468 24.344 3.86881 24.6676C3.80295 24.9912 3.83471 25.3271 3.96006 25.6326C4.08542 25.9381 4.29872 26.1996 4.5729 26.3837C4.84707 26.5678 5.16976 26.6663 5.50001 26.6666V35C5.50001 35.442 5.6756 35.8659 5.98816 36.1785C6.30073 36.4911 6.72465 36.6666 7.16668 36.6666H33.8333C34.2754 36.6666 34.6993 36.4911 35.0119 36.1785C35.3244 35.8659 35.5 35.442 35.5 35V6.68165C35.5 4.83165 34.0033 3.33331 32.1517 3.33331ZM18.7033 25.185V33.3333H8.83334V24.0533L13.8117 19.1383L18.7033 24.1433V25.185V25.185ZM22.1667 15H18.8333V11.6666H22.1667V15ZM28.8333 28.3333H25.5V25H28.8333V28.3333ZM28.8333 21.6666H25.5V18.3333H28.8333V21.6666ZM28.8333 15H25.5V11.6666H28.8333V15Z" fill="#292E3D"></path>
      <path d="M12.1667 25H15.5V28.3333H12.1667V25Z" fill="#14171F"></path>
    </g>
    <defs>
      <clipPath id="clip0_45_49">
        <rect width="40" height="40" fill="white" transform="translate(0.5)"></rect>
      </clipPath>
    </defs>
  </symbol>
  <symbol fill="none" xmlns="http://www.w3.org/2000/svg" viewBox="0 0 40 40" id="consultation">
    <rect y="16.6667" width="23.3333" height="23.3333" fill="#7595FD"></rect>
    <path d="M18.3333 10H23.3333L28.8167 4.50002C28.9716 4.3438 29.1559 4.21981 29.359 4.1352C29.5621 4.05058 29.78 4.00702 30 4.00702C30.22 4.00702 30.4379 4.05058 30.641 4.1352C30.8441 4.21981 31.0284 4.3438 31.1833 4.50002L35.4833 8.81668C35.7938 9.12895 35.968 9.55137 35.968 9.99168C35.968 10.432 35.7938 10.8544 35.4833 11.1667L31.6667 15H18.3333V18.3333C18.3333 18.7754 18.1577 19.1993 17.8452 19.5119C17.5326 19.8244 17.1087 20 16.6667 20C16.2246 20 15.8007 19.8244 15.4882 19.5119C15.1756 19.1993 15 18.7754 15 18.3333V13.3333C15 12.4493 15.3512 11.6014 15.9763 10.9763C16.6014 10.3512 17.4493 10 18.3333 10ZM8.33333 18.3333V25L4.51667 28.8167C4.20625 29.129 4.03201 29.5514 4.03201 29.9917C4.03201 30.432 4.20625 30.8544 4.51667 31.1667L8.81667 35.4833C8.97161 35.6396 9.15594 35.7636 9.35904 35.8482C9.56214 35.9328 9.77998 35.9763 10 35.9763C10.22 35.9763 10.4379 35.9328 10.641 35.8482C10.8441 35.7636 11.0284 35.6396 11.1833 35.4833L18.3333 28.3333H25C25.442 28.3333 25.866 28.1578 26.1785 27.8452C26.4911 27.5326 26.6667 27.1087 26.6667 26.6667V25H28.3333C28.7754 25 29.1993 24.8244 29.5118 24.5119C29.8244 24.1993 30 23.7754 30 23.3333V21.6667H31.6667C32.1087 21.6667 32.5326 21.4911 32.8452 21.1785C33.1577 20.866 33.3333 20.442 33.3333 20V18.3333H21.6667V20C21.6667 20.8841 21.3155 21.7319 20.6904 22.357C20.0652 22.9822 19.2174 23.3333 18.3333 23.3333H15C14.1159 23.3333 13.2681 22.9822 12.643 22.357C12.0179 21.7319 11.6667 20.8841 11.6667 20V15L8.33333 18.3333Z" fill="#292E3D"></path>
  </symbol>
  <symbol fill="none" xmlns="http://www.w3.org/2000/svg" viewBox="0 0 40 40" id="electric">
    <rect y="16.6667" width="23.3333" height="23.3333" fill="#7595FD"></rect>
    <path d="M35 23.3333C35 22.4167 34.25 21.6667 33.3333 21.6667H30V25H33.3333C34.25 25 35 24.25 35 23.3333ZM33.3333 28.3333H30V31.6667H33.3333C34.25 31.6667 35 30.9167 35 30C35 29.0833 34.25 28.3333 33.3333 28.3333ZM20 23.3333H16.6667V30H20C20 31.8333 21.5 33.3333 23.3333 33.3333H28.3333V20H23.3333C21.5 20 20 21.5 20 23.3333Z" fill="white"></path>
    <path d="M8.33333 21.6667C8.33333 19.8333 9.83333 18.3333 11.6667 18.3333H14.1667C17.3833 18.3333 20 15.7167 20 12.5C20 9.28332 17.3833 6.66666 14.1667 6.66666H8.33333C7.41667 6.66666 6.66667 7.41666 6.66667 8.33332C6.66667 9.24999 7.41667 9.99999 8.33333 9.99999H14.1667C15.55 9.99999 16.6667 11.1167 16.6667 12.5C16.6667 13.8833 15.55 15 14.1667 15H11.6667C7.98333 15 5 17.9833 5 21.6667C5 25.35 7.98333 28.3333 11.6667 28.3333H15V25H11.6667C9.83333 25 8.33333 23.5 8.33333 21.6667Z" fill="white"></path>
  </symbol>
  <symbol fill="none" xmlns="http://www.w3.org/2000/svg" viewBox="0 0 26 18" id="next-arrow">
    <path fill-rule="evenodd" clip-rule="evenodd" d="M-1.15156e-06 9C-1.17383e-06 9.25045 0.0978229 9.49063 0.271952 9.66773C0.446082 9.84482 0.682254 9.94431 0.928509 9.94431L22.8284 9.94431L16.9843 15.8859C16.898 15.9737 16.8295 16.078 16.7828 16.1927C16.7361 16.3074 16.712 16.4303 16.712 16.5545C16.712 16.6787 16.7361 16.8016 16.7828 16.9163C16.8295 17.031 16.898 17.1353 16.9843 17.2231C17.0707 17.3109 17.1732 17.3805 17.286 17.428C17.3987 17.4755 17.5196 17.5 17.6417 17.5C17.7638 17.5 17.8847 17.4755 17.9975 17.428C18.1103 17.3805 18.2128 17.3109 18.2991 17.2231L25.7272 9.66857C25.8137 9.58086 25.8823 9.47665 25.9291 9.36192C25.9759 9.2472 26 9.12421 26 9C26 8.87579 25.9759 8.7528 25.9291 8.63808C25.8823 8.52335 25.8137 8.41915 25.7272 8.33143L18.2991 0.776933C18.2128 0.689136 18.1103 0.619489 17.9975 0.571973C17.8847 0.524457 17.7638 0.500001 17.6417 0.500001C17.5196 0.500001 17.3988 0.524457 17.286 0.571973C17.1732 0.619489 17.0707 0.689136 16.9843 0.776933C16.898 0.864732 16.8295 0.968963 16.7828 1.08368C16.7361 1.19839 16.712 1.32134 16.712 1.4455C16.712 1.56967 16.7361 1.69262 16.7828 1.80734C16.8295 1.92205 16.898 2.02628 16.9843 2.11408L22.8284 8.05569L0.92851 8.05569C0.682254 8.05569 0.446082 8.15518 0.271952 8.33227C0.097823 8.50936 -1.1293e-06 8.74955 -1.15156e-06 9Z" fill="white"></path>
  </symbol>
  <symbol fill="none" xmlns="http://www.w3.org/2000/svg" viewBox="0 0 41 40" id="renovation">
    <g clip-path="url(#clip0_45_108)">
      <rect x="0.5" y="16.6667" width="23.3333" height="23.3333" fill="#7595FD"></rect>
      <path d="M33 4.99998C31.8952 5.00086 30.8359 5.44014 30.0547 6.22135C29.2735 7.00256 28.8342 8.06185 28.8333 9.16665C28.8333 9.76165 28.9633 10.3266 29.19 10.8416L25.9317 14.5066C24.8248 13.7426 23.5116 13.3334 22.1667 13.3333C20.9333 13.3333 19.7933 13.6933 18.8017 14.2766L15.0117 10.4883L14.9733 10.5266C15.3 9.86332 15.5 9.12498 15.5 8.33332C15.5 7.34441 15.2068 6.37771 14.6573 5.55546C14.1079 4.73322 13.327 4.09236 12.4134 3.71392C11.4998 3.33548 10.4945 3.23646 9.52455 3.42939C8.55464 3.62231 7.66373 4.09852 6.96447 4.79778C6.2652 5.49704 5.789 6.38796 5.59607 7.35786C5.40315 8.32777 5.50216 9.3331 5.8806 10.2467C6.25904 11.1604 6.8999 11.9413 7.72215 12.4907C8.54439 13.0401 9.51109 13.3333 10.5 13.3333C11.2917 13.3333 12.0283 13.1333 12.6933 12.8066L12.655 12.845L16.445 16.6333C15.8327 17.65 15.5062 18.8132 15.5 20C15.5 21.6616 16.1333 23.165 17.1417 24.335L12.8467 28.6283C12.3653 28.4356 11.8518 28.3355 11.3333 28.3333C9.03667 28.3333 7.16667 30.2016 7.16667 32.5C7.16667 34.7983 9.03667 36.6666 11.3333 36.6666C13.63 36.6666 15.5 34.7983 15.5 32.5C15.5 31.965 15.39 31.4566 15.205 30.985L19.935 26.255C20.6367 26.505 21.38 26.6666 22.1667 26.6666C25.8433 26.6666 28.8333 23.6766 28.8333 20C28.8333 18.94 28.5617 17.9516 28.12 17.06L31.6483 13.0883C32.075 13.235 32.525 13.3333 33 13.3333C35.2983 13.3333 37.1667 11.465 37.1667 9.16665C37.1667 6.86832 35.2983 4.99998 33 4.99998ZM22.1667 23.3333C20.3283 23.3333 18.8333 21.8383 18.8333 20C18.8333 18.1616 20.3283 16.6666 22.1667 16.6666C24.005 16.6666 25.5 18.1616 25.5 20C25.5 21.8383 24.005 23.3333 22.1667 23.3333Z" fill="white"></path>
    </g>
    <defs>
      <clipPath id="clip0_45_108">
        <rect width="40" height="40" fill="white" transform="translate(0.5)"></rect>
      </clipPath>
    </defs>
  </symbol>
  <symbol fill="none" xmlns="http://www.w3.org/2000/svg" viewBox="0 0 41 40" id="repair">
    <g clip-path="url(#clip0_45_17)">
      <rect x="0.5" y="16.6667" width="23.3333" height="23.3333" fill="#7595FD"></rect>
      <path d="M30.5 26.6667H27.1667V25H13.8333V26.6667H10.5V25H3.83334V33.3333H37.1667V25H30.5V26.6667ZM33.8333 13.3333H28.8333V9.99999C28.8333 8.16666 27.3333 6.66666 25.5 6.66666H15.5C13.6667 6.66666 12.1667 8.16666 12.1667 9.99999V13.3333H7.16668C5.33334 13.3333 3.83334 14.8333 3.83334 16.6667V23.3333H10.5V20H13.8333V23.3333H27.1667V20H30.5V23.3333H37.1667V16.6667C37.1667 14.8333 35.6667 13.3333 33.8333 13.3333ZM25.5 13.3333H15.5V9.99999H25.5V13.3333Z" fill="white"></path>
    </g>
    <defs>
      <clipPath id="clip0_45_17">
        <rect width="40" height="40" fill="white" transform="translate(0.5)"></rect>
      </clipPath>
    </defs>
  </symbol>
</svg>